<?xml version="1.0"?>
<svg width="1080" height="1080" xmlns="http://www.w3.org/2000/svg" xmlns:svg="http://www.w3.org/2000/svg" version="1.1" xml:space="preserve">
 <desc>Created with Fabric.js 5.2.4</desc>

 <g class="layer">
  <title>Layer 1</title>
  <g id="svg_62" transform="matrix(5.5563 0 0 5.5563 1373.21 1134.59)">
   <path d="m83.92,41.09c7.17,0 10.76,-6.32 13.71,-6.32c3.79,0 1.47,9.49 5.9,11.17c4.85,1.9 9.28,4.85 9.28,9.28c0,8.86 -16.87,13.92 -16.87,20.45c0,3.38 4.43,6.96 4.43,9.7c0,1.9 -2.32,1.9 -2.32,4.01c0,1.9 1.9,2.53 1.9,4.01c0,0.84 -0.63,1.68 -2.11,2.95c-4.22,3.58 -10.33,5.69 -10.33,10.33c0,6.33 11.17,8.01 11.17,13.28c0,4.01 -6.32,6.96 -6.32,14.98l0,12.22l61.36,0l0,-19.18c0,-5.7 -0.85,-13.92 -9.91,-17.08c-6.54,-2.32 -9.49,-4.01 -9.49,-5.7c0,-1.05 1.68,-2.31 4.43,-3.37c6.95,-2.74 22.98,-5.69 22.98,-10.96c0,-7.17 -29.94,-4.64 -29.94,-16.87c0,-2.95 1.47,-4.85 4,-4.85c1.27,0 2.74,0.42 4.01,0.42c5.69,0 6.54,-9.7 14.13,-9.7c2.11,0 4.85,0.84 8.43,0.84c5.69,0 10.97,-2.1 10.97,-5.9c0,-2.32 -1.9,-4.64 -5.06,-4.64c-4.43,0 -9.07,4.01 -15.19,4.01c-7.59,0 -9.06,-6.12 -9.27,-9.07c0,-3.37 1.47,-7.38 4.64,-10.75c5.06,-5.27 5.27,-6.12 5.27,-11.39l0,-14.97l-61.36,0l0,5.48c0,5.91 6.53,6.75 6.53,10.76c0,2.95 -4,5.9 -10.54,5.9c-7.17,0 -11.6,3.37 -11.6,6.33c0,2.53 2.96,4.63 7.17,4.63zm36.69,51.87c0,-2.53 3.16,-3.79 9.49,-3.79c5.69,0 16.03,1.05 16.03,3.16c0,2.11 -9.7,4.43 -17.29,4.43c-5.28,0 -8.23,-1.05 -8.23,-3.8zm-16.23,-64.94c0,-1.69 5.69,-2.32 10.75,-2.32c5.9,0 8.43,0.85 8.43,2.95c0,2.32 -2.74,3.17 -6.95,3.17c-5.91,0 -12.23,-1.9 -12.23,-3.8zm-16.66,49.55c3.16,0 5.69,-1.26 5.69,-4.64c0,-2.53 -1.26,-3.37 -3.79,-3.37c-4.43,0 -10.12,2.11 -10.12,4.43c0,2.11 4.63,3.58 8.22,3.58zm7.8,28.05c1.05,0 3.8,1.68 9.91,2.53c6.12,0.84 8.65,0.21 8.65,1.68c0,1.69 -2.53,3.59 -5.7,3.59c-4,0 -13.91,-3.38 -13.91,-6.54c0,-0.84 0.42,-1.26 1.05,-1.26zm52.29,-59.89c0,2.96 2.32,5.06 5.27,5.06c2.32,0 5.7,-1.05 5.7,-2.1c0,-1.69 -8.44,-5.28 -9.91,-5.28c-0.64,0 -1.06,1.06 -1.06,2.32zm-59.25,74.86c0,1.47 1.48,2.95 3.59,2.95c1.89,0 3.37,-1.48 3.37,-2.95c0,-1.69 -1.48,-2.95 -3.37,-2.95c-2.11,0 -3.59,1.26 -3.59,2.95zm3.8,-93.83c2.11,0 4,-1.27 4,-2.53c0,-1.48 -1.89,-2.53 -4,-2.53c-2.32,0 -4.01,1.05 -4.01,2.53c0,1.26 1.69,2.53 4.01,2.53zm53.55,80.75c2.11,0 2.75,-1.05 2.75,-2.32c0,-1.47 -0.64,-2.53 -2.75,-2.53c-2.1,0 -5.06,1.06 -5.06,2.53c0,1.27 2.96,2.32 5.06,2.32zm-11.8,-32.47c0,1.27 1.47,2.53 2.95,2.53c1.69,0 2.95,-1.26 2.95,-2.53c0,-1.26 -1.26,-2.53 -2.95,-2.53c-1.48,0 -2.95,1.27 -2.95,2.53zm-40.07,-33.52c0,1.05 0.64,1.89 1.69,1.89c1.48,0 2.95,-1.26 2.95,-2.95l0,-0.63c0,-0.84 -0.42,-2.11 -1.68,-2.11c-1.69,0 -2.96,2.11 -2.96,3.8z" fill="rgb(61,57,53)" fill-rule="nonzero" id="svg_63" stroke-dashoffset="0" stroke-miterlimit="10" transform="translate(-275 -184.58)"/>
  </g>
 </g>
</svg>