<?xml version="1.0" encoding="UTF-8" standalone="no" ?>
<!DOCTYPE svg PUBLIC "-//W3C//DTD SVG 1.1//EN" "http://www.w3.org/Graphics/SVG/1.1/DTD/svg11.dtd">
<svg xmlns="http://www.w3.org/2000/svg" xmlns:xlink="http://www.w3.org/1999/xlink" version="1.1" width="1080" height="1080" viewBox="0 0 1080 1080" xml:space="preserve">
<desc>Created with Fabric.js 5.2.4</desc>
<defs>
</defs>
<g transform="matrix(1 0 0 1 540 540)" id="f92c3593-8fa9-4566-a3b3-f80deb17e65c"  >
</g>
<g transform="matrix(1 0 0 1 540 540)" id="a35166a5-0640-4865-9802-6846391379f8"  >
<rect style="stroke: none; stroke-width: 1; stroke-dasharray: none; stroke-linecap: butt; stroke-dashoffset: 0; stroke-linejoin: miter; stroke-miterlimit: 4; fill: rgb(255,255,255); fill-rule: nonzero; opacity: 1; visibility: hidden;" vector-effect="non-scaling-stroke"  x="-540" y="-540" rx="0" ry="0" width="1080" height="1080" />
</g>
<g transform="matrix(1.96 0 0 1.96 539 539.15)"  >
<g style=""   >
		<g transform="matrix(1 0 0 1 -106.75 115.93)"  >
<path style="stroke: none; stroke-width: 1; stroke-dasharray: none; stroke-linecap: butt; stroke-dashoffset: 0; stroke-linejoin: miter; stroke-miterlimit: 10; fill: rgb(61,57,53); fill-rule: nonzero; opacity: 1;" vector-effect="non-scaling-stroke"  transform=" translate(-168.25, -350.93)" d="M 168.23949 355 C 168.03984 355 167.85555 354.98848 167.68661 354.96545 C 167.31034 354.9117 166.96096 354.81187 166.63844 354.66596999999996 C 166.31593 354.52007 166.03373 354.33001999999993 165.79184 354.09581 C 165.54996 353.86159999999995 165.35798 353.58516 165.21592 353.26649 C 165.07386000000002 352.94782 164.99515000000002 352.59267 164.97979 352.20104 L 164.97979 346.85654 L 166.22377 346.85654 L 166.22377 352.07434 C 166.22377 352.35078 166.27176 352.58883000000003 166.36775 352.78848 C 166.46374 352.98813 166.59236 353.15515 166.75361 353.28953 C 166.91487 353.42391000000003 167.103 353.52758 167.31801000000002 353.60052 C 167.53302000000002 353.67347 167.76339000000002 353.72146000000004 168.00911000000002 353.7445 C 168.0475 353.75218 168.07630000000003 353.75602000000003 168.09550000000002 353.75602000000003 C 168.11470000000003 353.75602000000003 168.13581000000002 353.75602000000003 168.15885000000003 353.75602000000003 L 168.33162000000004 353.75602000000003 C 168.35466000000005 353.75602000000003 168.37577000000005 353.75602000000003 168.39497000000006 353.75602000000003 C 168.41417000000007 353.75602000000003 168.44296000000006 353.75218 168.48136000000005 353.7445 C 168.72708000000006 353.72146000000004 168.95937000000006 353.67347 169.17822000000004 353.60052 C 169.39707000000004 353.52757 169.58712000000003 353.42391000000003 169.74838000000003 353.28953 C 169.90964000000002 353.15515 170.03826000000004 352.98813 170.13424000000003 352.78848 C 170.23023000000003 352.58883 170.27822000000003 352.35078 170.27822000000003 352.07434 L 170.27822000000003 346.85654 L 171.52220000000003 346.85654 L 171.52220000000003 352.20104 C 171.50684000000004 352.59265999999997 171.42813000000004 352.94781 171.28607000000002 353.26649 C 171.14401000000004 353.58516 170.95204 353.86352 170.71015000000003 354.10157 C 170.46827000000002 354.33961999999997 170.18415000000002 354.53159 169.85779000000002 354.67749 C 169.53144000000003 354.82338999999996 169.17629000000002 354.91936999999996 168.79234000000002 354.96545 L 168.38920000000002 355 z" stroke-linecap="round" />
</g>
		<g transform="matrix(1 0 0 1 -97.34 115.89)"  >
<path style="stroke: none; stroke-width: 1; stroke-dasharray: none; stroke-linecap: butt; stroke-dashoffset: 0; stroke-linejoin: miter; stroke-miterlimit: 10; fill: rgb(61,57,53); fill-rule: nonzero; opacity: 1;" vector-effect="non-scaling-stroke"  transform=" translate(-177.67, -350.89)" d="M 179.93443 354.91937 L 175.60353999999998 349.17172 L 175.60353999999998 354.91937 L 174.38259999999997 354.91937 L 174.38259999999997 346.85654 L 175.36165999999997 346.85654 L 179.72710999999998 352.59267 L 179.72710999999998 346.85654 L 180.94805 346.85654 L 180.94805 354.91937 z" stroke-linecap="round" />
</g>
		<g transform="matrix(1 0 0 1 -88.69 115.89)"  >
<path style="stroke: none; stroke-width: 1; stroke-dasharray: none; stroke-linecap: butt; stroke-dashoffset: 0; stroke-linejoin: miter; stroke-miterlimit: 10; fill: rgb(61,57,53); fill-rule: nonzero; opacity: 1;" vector-effect="non-scaling-stroke"  transform=" translate(-186.31, -350.89)" d="M 183.80842 354.91937 L 183.80842 346.85654 L 185.0524 346.85654 L 185.0524 353.67539 L 188.80737 353.67539 L 188.80737 354.91937 z" stroke-linecap="round" />
</g>
		<g transform="matrix(1 0 0 1 -80.82 115.89)"  >
<path style="stroke: none; stroke-width: 1; stroke-dasharray: none; stroke-linecap: butt; stroke-dashoffset: 0; stroke-linejoin: miter; stroke-miterlimit: 10; fill: rgb(61,57,53); fill-rule: nonzero; opacity: 1;" vector-effect="non-scaling-stroke"  transform=" translate(-194.17, -350.89)" d="M 191.66776 354.91937 L 191.66776 346.85654 L 196.64368 346.85654 L 196.64368 348.10052 L 192.91173999999998 348.10052 L 192.91173999999998 350.11623000000003 L 196.30964999999998 350.11623000000003 L 196.30964999999998 351.36021000000005 L 192.91173999999998 351.36021000000005 L 192.91173999999998 353.67539000000005 L 196.67822999999999 353.67539000000005 L 196.67822999999999 354.9193700000001 z" stroke-linecap="round" />
</g>
		<g transform="matrix(1 0 0 1 -71.99 115.89)"  >
<path style="stroke: none; stroke-width: 1; stroke-dasharray: none; stroke-linecap: butt; stroke-dashoffset: 0; stroke-linejoin: miter; stroke-miterlimit: 10; fill: rgb(61,57,53); fill-rule: nonzero; opacity: 1;" vector-effect="non-scaling-stroke"  transform=" translate(-203.01, -350.89)" d="M 204.27265 352.60419 L 201.73862 352.60419 L 200.92082 354.91937 L 199.53861999999998 354.91937 L 202.41819999999998 346.85654 L 203.59306999999998 346.85654 L 206.47265 354.91937 L 205.09044999999998 354.91937 z M 202.17632 351.37173 L 203.82344 351.37173 C 203.74665000000002 351.14904 203.67562 350.94939 203.61035 350.77278 C 203.54508 350.59617000000003 203.48173 350.42147 203.4203 350.2487 C 203.35887 350.07592999999997 203.29552 349.89739 203.23024999999998 349.7131 C 203.16497999999999 349.52881 203.09010999999998 349.3138 203.00563999999997 349.06807 z" stroke-linecap="round" />
</g>
		<g transform="matrix(1 0 0 1 -62.65 115.9)"  >
<path style="stroke: none; stroke-width: 1; stroke-dasharray: none; stroke-linecap: butt; stroke-dashoffset: 0; stroke-linejoin: miter; stroke-miterlimit: 10; fill: rgb(61,57,53); fill-rule: nonzero; opacity: 1;" vector-effect="non-scaling-stroke"  transform=" translate(-212.36, -350.9)" d="M 214.11314 348.80314 C 213.89812999999998 348.54206 213.66200999999998 348.35393 213.40475999999998 348.23874 C 213.14752 348.12356 212.84611999999998 348.06597 212.50056999999998 348.06597 C 212.05518999999998 348.06597 211.70772999999997 348.15236 211.45816 348.32513 C 211.2086 348.4979 211.08381 348.70715 211.08381 348.95288 C 211.08381 349.10645999999997 211.13948 349.24276 211.25083 349.36178 C 211.36217000000002 349.4808 211.50615000000002 349.58831000000004 211.68277 349.68429000000003 C 211.85938000000002 349.78028 212.05136000000002 349.87050000000005 212.25869 349.95497000000006 C 212.46602000000001 350.03944000000007 212.66951 350.1162300000001 212.86916 350.18534000000005 L 212.85764 350.18534000000005 C 213.08033 350.26213000000007 213.33181 350.36195000000004 213.61209 350.48482000000007 C 213.89237 350.6076800000001 214.15729 350.7651000000001 214.40685 350.95707000000004 C 214.65641 351.14904000000007 214.86758 351.37941000000006 215.04036 351.64817000000005 C 215.21313 351.91693000000004 215.29952 352.23560000000003 215.29952 352.6041900000001 C 215.29952 352.98813000000007 215.22657 353.32792000000006 215.08067 353.62356000000005 C 214.93477 353.91920000000005 214.73128 354.16684000000004 214.4702 354.36649000000006 C 214.20912 354.5661400000001 213.90388000000002 354.71780000000007 213.55449000000002 354.82146000000006 C 213.20510000000002 354.92512000000005 212.82692000000003 354.9769600000001 212.41993000000002 354.9769600000001 C 211.84401000000003 354.9769600000001 211.30649000000003 354.8541000000001 210.80736000000002 354.6083700000001 C 210.30823 354.3626500000001 209.81678000000002 353.97102000000007 209.33301000000003 353.4335000000001 L 210.34662000000003 352.6041800000001 C 210.62306000000004 352.9881200000001 210.93597000000003 353.2684000000001 211.28536000000003 353.4450200000001 C 211.63475000000003 353.6216300000001 212.01677000000004 353.70994000000013 212.43143000000003 353.70994000000013 C 212.66948000000002 353.70994000000013 212.88640000000004 353.68690000000015 213.08222000000004 353.6408300000001 C 213.27803000000003 353.5947600000001 213.44697000000002 353.5294900000001 213.58903000000004 353.4450200000001 C 213.73109000000002 353.3605500000001 213.84243000000004 353.26073000000014 213.92306000000005 353.1455400000001 C 214.00369000000006 353.0303600000001 214.04400000000004 352.9036600000001 214.04400000000004 352.76544000000007 C 214.04400000000004 352.57347000000004 213.98641000000003 352.4045300000001 213.87123000000003 352.2586300000001 C 213.75605000000002 352.1127300000001 213.61015000000003 351.9841100000001 213.43353000000002 351.8727700000001 C 213.25692 351.76143000000013 213.05726 351.6654400000001 212.83458000000002 351.5848100000001 C 212.61189000000002 351.50418000000013 212.39688 351.4293100000001 212.18955000000003 351.36020000000013 L 211.91311000000002 351.25654000000014 C 211.65203000000002 351.16439000000014 211.3967 351.06649000000016 211.14714 350.96282000000014 C 210.89758 350.85916000000014 210.67297000000002 350.72477000000015 210.47332 350.5596800000001 C 210.27367 350.39458000000013 210.11241 350.1891700000001 209.98955 349.94345000000015 C 209.86669 349.69773000000015 209.80526 349.39441000000016 209.80526 349.0335000000002 C 209.80526 348.7493800000002 209.85517000000002 348.47294000000016 209.955 348.2041800000002 C 210.05483 347.9354200000002 210.21224 347.6992900000002 210.42725000000002 347.4958000000002 C 210.64226000000002 347.2923100000002 210.9187 347.1291300000002 211.25657 347.0062700000002 C 211.59444000000002 346.8834100000002 212.00142000000002 346.8219800000002 212.47751000000002 346.8219800000002 C 212.75395000000003 346.8219800000002 213.01887000000002 346.8450200000002 213.27227000000002 346.89109000000025 C 213.52567000000002 346.93716000000023 213.77140000000003 347.01587000000023 214.00944 347.12722000000025 C 214.24749 347.23856000000023 214.47977 347.3844600000003 214.7063 347.56492000000026 C 214.93283 347.74537000000026 215.15743 347.96998000000025 215.38012 348.23874000000023 L 214.30892 349.0911000000002 z" stroke-linecap="round" />
</g>
		<g transform="matrix(1 0 0 1 -53.85 115.89)"  >
<path style="stroke: none; stroke-width: 1; stroke-dasharray: none; stroke-linecap: butt; stroke-dashoffset: 0; stroke-linejoin: miter; stroke-miterlimit: 10; fill: rgb(61,57,53); fill-rule: nonzero; opacity: 1;" vector-effect="non-scaling-stroke"  transform=" translate(-221.15, -350.89)" d="M 222.81332 354.91937 L 222.81332 351.36021 L 219.48452 351.36021 L 219.48452 354.91937 L 218.24054 354.91937 L 218.24054 346.85654 L 219.48452 346.85654 L 219.48452 350.11623 L 222.81332 350.11623 L 222.81332 346.85654 L 224.0573 346.85654 L 224.0573 354.91937 z" stroke-linecap="round" />
</g>
		<g transform="matrix(1 0 0 1 -39.25 115.89)"  >
<path style="stroke: none; stroke-width: 1; stroke-dasharray: none; stroke-linecap: butt; stroke-dashoffset: 0; stroke-linejoin: miter; stroke-miterlimit: 10; fill: rgb(61,57,53); fill-rule: nonzero; opacity: 1;" vector-effect="non-scaling-stroke"  transform=" translate(-235.75, -350.89)" d="M 235.74456 349.75916 L 237.79482000000002 346.85654 L 239.28068000000002 346.85654 L 236.37806 351.14136 L 236.36654000000001 354.91937 L 235.12256000000002 354.91937 L 235.12256000000002 351.14136 L 232.21994 346.85654 L 233.7058 346.85654 z" stroke-linecap="round" />
</g>
		<g transform="matrix(1 0 0 1 -29.09 115.86)"  >
<path style="stroke: none; stroke-width: 1; stroke-dasharray: none; stroke-linecap: butt; stroke-dashoffset: 0; stroke-linejoin: miter; stroke-miterlimit: 10; fill: rgb(61,57,53); fill-rule: nonzero; opacity: 1;" vector-effect="non-scaling-stroke"  transform=" translate(-245.91, -350.86)" d="M 248.43008 350.8534 C 248.43008 350.47713000000005 248.37825 350.11623000000003 248.27458000000001 349.77068 C 248.17092000000002 349.42513 248.01350000000002 349.11989000000005 247.80233 348.85497000000004 C 247.59116 348.59005 247.32816000000003 348.3808 247.01332000000002 348.22722000000005 C 246.69849000000002 348.07364000000007 246.3299 347.99685000000005 245.90756000000002 347.99685000000005 C 245.49290000000002 347.99685000000005 245.12815 348.07364000000007 244.81332 348.22722000000005 C 244.49849 348.3808 244.2374 348.58813000000004 244.03007 348.84921 C 243.82273999999998 349.11029 243.66532 349.41361 243.55782 349.75916 C 243.45032 350.10471 243.39656 350.46946 243.39656 350.8534 C 243.39656 351.23734 243.45031 351.60209000000003 243.55782 351.94764000000004 C 243.66531999999998 352.29319000000004 243.82273999999998 352.59843 244.03007 352.86335 C 244.2374 353.12827000000004 244.49848 353.33944 244.81332 353.49686 C 245.12815 353.65428 245.4929 353.73299000000003 245.90756000000002 353.73299000000003 C 246.3299 353.73299000000003 246.69849000000002 353.6562 247.01332000000002 353.50262000000004 C 247.32815000000002 353.34904000000006 247.59116000000003 353.13979000000006 247.80233 352.87487000000004 C 248.01350000000002 352.60995 248.17092000000002 352.30471000000006 248.27458000000001 351.95916000000005 C 248.37824 351.61361000000005 248.43008 351.24502000000007 248.43008 350.8534000000001 z M 249.68558 350.84188 C 249.68558 351.3794 249.60687 351.89773 249.44944999999998 352.39685000000003 C 249.29202999999998 352.89598 249.05398999999997 353.33559 248.73531 353.7157 C 248.41664 354.09580000000005 248.02117 354.40104 247.54892 354.63141 C 247.07667 354.86178 246.52955 354.97696 245.90756000000002 354.97696 C 245.28557 354.97696 244.74037 354.86178 244.27196 354.63141 C 243.80355 354.40104 243.41001 354.09581000000003 243.09133 353.7157 C 242.77266 353.3356 242.53461 352.89598 242.37719 352.39685000000003 C 242.21977 351.89772000000005 242.14106 351.37940000000003 242.14106 350.84188 C 242.14106 350.31204 242.21977 349.79947 242.37719 349.30418000000003 C 242.53461000000001 348.80889 242.77265000000003 348.37312000000003 243.09133 347.99685000000005 C 243.41 347.6205800000001 243.80355 347.31919000000005 244.27196 347.09266 C 244.74037 346.86613 245.28557 346.75287000000003 245.90756000000002 346.75287000000003 C 246.52955000000003 346.75287000000003 247.07667 346.86613000000006 247.54892 347.09266 C 248.02117 347.31919000000005 248.41663 347.62058 248.73531 347.99685000000005 C 249.05398 348.37312000000003 249.29203 348.8088900000001 249.44944999999998 349.30418000000003 C 249.60687 349.79947000000004 249.68558 350.31203000000005 249.68558 350.84188 z" stroke-linecap="round" />
</g>
		<g transform="matrix(1 0 0 1 -19.18 115.93)"  >
<path style="stroke: none; stroke-width: 1; stroke-dasharray: none; stroke-linecap: butt; stroke-dashoffset: 0; stroke-linejoin: miter; stroke-miterlimit: 10; fill: rgb(61,57,53); fill-rule: nonzero; opacity: 1;" vector-effect="non-scaling-stroke"  transform=" translate(-255.82, -350.93)" d="M 255.80565 355 C 255.60600000000002 355 255.42171000000002 354.98848 255.25277000000003 354.96545 C 254.87650000000002 354.9117 254.52712000000002 354.81187 254.20460000000003 354.66596999999996 C 253.88209000000003 354.52007 253.59989000000002 354.33001999999993 253.35800000000003 354.09581 C 253.11612000000002 353.86159999999995 252.92414000000002 353.58516 252.78208000000004 353.26649 C 252.64002000000005 352.94782 252.56131000000005 352.59267 252.54595000000003 352.20104 L 252.54595000000003 346.85654 L 253.78993000000003 346.85654 L 253.78993000000003 352.07434 C 253.78993000000003 352.35078 253.83792000000003 352.58883000000003 253.93391000000003 352.78848 C 254.02990000000003 352.98813 254.15852000000004 353.15515 254.31977000000003 353.28953 C 254.48103000000003 353.42391000000003 254.66916000000003 353.52758 254.88417000000004 353.60052 C 255.09918000000005 353.67347 255.32955000000004 353.72146000000004 255.57527000000005 353.7445 C 255.61366000000004 353.75218 255.64246000000006 353.75602000000003 255.66166000000004 353.75602000000003 C 255.68086000000005 353.75602000000003 255.70197000000005 353.75602000000003 255.72501000000005 353.75602000000003 L 255.89778000000007 353.75602000000003 C 255.92082000000008 353.75602000000003 255.94193000000007 353.75602000000003 255.96113000000008 353.75602000000003 C 255.9803300000001 353.75602000000003 256.0091200000001 353.75218 256.0475200000001 353.7445 C 256.2932400000001 353.72146000000004 256.52553000000006 353.67347 256.7443800000001 353.60052 C 256.96323000000007 353.52757 257.1532800000001 353.42391000000003 257.3145400000001 353.28953 C 257.4758000000001 353.15515 257.60442000000006 352.98813 257.70040000000006 352.78848 C 257.79639000000003 352.58883 257.84438000000006 352.35078 257.84438000000006 352.07434 L 257.84438000000006 346.85654 L 259.0883600000001 346.85654 L 259.0883600000001 352.20104 C 259.0730000000001 352.59265999999997 258.9942900000001 352.94781 258.8522300000001 353.26649 C 258.71017000000006 353.58516 258.5182000000001 353.86352 258.2763100000001 354.10157 C 258.0344300000001 354.33961999999997 257.75031000000007 354.53159 257.4239500000001 354.67749 C 257.0976000000001 354.82338999999996 256.7424500000001 354.91936999999996 256.3585000000001 354.96545 L 255.9553600000001 355 z" stroke-linecap="round" />
</g>
		<g transform="matrix(1 0 0 1 -10.11 115.89)"  >
<path style="stroke: none; stroke-width: 1; stroke-dasharray: none; stroke-linecap: butt; stroke-dashoffset: 0; stroke-linejoin: miter; stroke-miterlimit: 10; fill: rgb(61,57,53); fill-rule: nonzero; opacity: 1;" vector-effect="non-scaling-stroke"  transform=" translate(-264.89, -350.89)" d="M 264.63253 351.65969 L 263.19273999999996 351.65969 L 263.19273999999996 354.91938 L 261.94875999999994 354.91938 L 261.94875999999994 346.85654999999997 L 265.0126399999999 346.85654999999997 C 265.34282999999994 346.85654999999997 265.65190999999993 346.9199 265.9398699999999 347.04659999999996 C 266.2278299999999 347.1733 266.4812299999999 347.34608 266.7000799999999 347.56492 C 266.9189299999999 347.78376999999995 267.0916999999999 348.03909 267.2183999999999 348.33088999999995 C 267.34509999999995 348.62269 267.4084499999999 348.93368 267.4084499999999 349.26386999999994 C 267.4084499999999 349.74763999999993 267.2759899999999 350.18533999999994 267.0110699999999 350.57695999999993 C 266.7461499999999 350.9685799999999 266.4101999999999 351.26037999999994 266.0032199999999 351.4523499999999 L 267.8231199999999 354.9193699999999 L 266.4178799999999 354.9193699999999 z M 263.19274 350.41571 L 265.01264000000003 350.41571 C 265.17390000000006 350.41571 265.32363000000004 350.38691 265.46185 350.32932 C 265.60007 350.27173 265.72101000000004 350.1911 265.82468 350.08744 C 265.92834 349.98378 266.01089 349.86091 266.07232 349.71885000000003 C 266.13374999999996 349.57679 266.16447 349.42513 266.16447 349.26388000000003 C 266.16447 348.94137 266.05313 348.66877000000005 265.83044 348.44608000000005 C 265.60775 348.22339000000005 265.33515 348.10821000000004 265.01264000000003 348.10053000000005 L 263.19274 348.10053000000005 z" stroke-linecap="round" />
</g>
		<g transform="matrix(1 0 0 1 1.61 115.89)"  >
<path style="stroke: none; stroke-width: 1; stroke-dasharray: none; stroke-linecap: butt; stroke-dashoffset: 0; stroke-linejoin: miter; stroke-miterlimit: 10; fill: rgb(61,57,53); fill-rule: nonzero; opacity: 1;" vector-effect="non-scaling-stroke"  transform=" translate(-276.61, -350.89)" d="M 275.98576 354.91937 L 275.98576 346.85654 L 277.22974000000005 346.85654 L 277.22974000000005 354.91937 z" stroke-linecap="round" />
</g>
		<g transform="matrix(1 0 0 1 8.37 115.89)"  >
<path style="stroke: none; stroke-width: 1; stroke-dasharray: none; stroke-linecap: butt; stroke-dashoffset: 0; stroke-linejoin: miter; stroke-miterlimit: 10; fill: rgb(61,57,53); fill-rule: nonzero; opacity: 1;" vector-effect="non-scaling-stroke"  transform=" translate(-283.37, -350.89)" d="M 285.64196 354.91937 L 281.31107 349.17172 L 281.31107 354.91937 L 280.09013 354.91937 L 280.09013 346.85654 L 281.06919 346.85654 L 285.43464 352.59267 L 285.43464 346.85654 L 286.65558 346.85654 L 286.65558 354.91937 z" stroke-linecap="round" />
</g>
		<g transform="matrix(1 0 0 1 17.8 115.89)"  >
<path style="stroke: none; stroke-width: 1; stroke-dasharray: none; stroke-linecap: butt; stroke-dashoffset: 0; stroke-linejoin: miter; stroke-miterlimit: 10; fill: rgb(61,57,53); fill-rule: nonzero; opacity: 1;" vector-effect="non-scaling-stroke"  transform=" translate(-292.8, -350.89)" d="M 295.06779 354.91937 L 290.7369 349.17172 L 290.7369 354.91937 L 289.51596 354.91937 L 289.51596 346.85654 L 290.49502 346.85654 L 294.86047 352.59267 L 294.86047 346.85654 L 296.08141 346.85654 L 296.08141 354.91937 z" stroke-linecap="round" />
</g>
		<g transform="matrix(1 0 0 1 26.45 115.89)"  >
<path style="stroke: none; stroke-width: 1; stroke-dasharray: none; stroke-linecap: butt; stroke-dashoffset: 0; stroke-linejoin: miter; stroke-miterlimit: 10; fill: rgb(61,57,53); fill-rule: nonzero; opacity: 1;" vector-effect="non-scaling-stroke"  transform=" translate(-301.45, -350.89)" d="M 298.94179 354.91937 L 298.94179 346.85654 L 303.91771 346.85654 L 303.91771 348.10052 L 300.18577 348.10052 L 300.18577 350.11623000000003 L 303.58368 350.11623000000003 L 303.58368 351.36021000000005 L 300.18577 351.36021000000005 L 300.18577 353.67539000000005 L 303.95225999999997 353.67539000000005 L 303.95225999999997 354.9193700000001 z" stroke-linecap="round" />
</g>
		<g transform="matrix(1 0 0 1 34.75 115.89)"  >
<path style="stroke: none; stroke-width: 1; stroke-dasharray: none; stroke-linecap: butt; stroke-dashoffset: 0; stroke-linejoin: miter; stroke-miterlimit: 10; fill: rgb(61,57,53); fill-rule: nonzero; opacity: 1;" vector-effect="non-scaling-stroke"  transform=" translate(-309.75, -350.89)" d="M 309.49641 351.65969 L 308.05662 351.65969 L 308.05662 354.91938 L 306.81264 354.91938 L 306.81264 346.85654999999997 L 309.87651999999997 346.85654999999997 C 310.20671 346.85654999999997 310.51579 346.9199 310.80375 347.04659999999996 C 311.09171 347.1733 311.34511 347.34608 311.56395999999995 347.56492 C 311.7828099999999 347.78376999999995 311.95557999999994 348.03909 312.08227999999997 348.33088999999995 C 312.20898 348.62269 312.27232999999995 348.93368 312.27232999999995 349.26386999999994 C 312.27232999999995 349.74763999999993 312.13987 350.18533999999994 311.87494999999996 350.57695999999993 C 311.61002999999994 350.9685799999999 311.27407999999997 351.26037999999994 310.86709999999994 351.4523499999999 L 312.68699999999995 354.9193699999999 L 311.28175999999996 354.9193699999999 z M 308.05662 350.41571 L 309.87652 350.41571 C 310.03778000000005 350.41571 310.18751000000003 350.38691 310.32573 350.32932 C 310.46395 350.27173 310.58489000000003 350.1911 310.68856 350.08744 C 310.79222 349.98378 310.87477 349.86091 310.9362 349.71885000000003 C 310.99762999999996 349.57679 311.02835 349.42513 311.02835 349.26388000000003 C 311.02835 348.94137 310.91701 348.66877000000005 310.69432 348.44608000000005 C 310.47163 348.22339000000005 310.19903 348.10821000000004 309.87652 348.10053000000005 L 308.05662 348.10053000000005 z" stroke-linecap="round" />
</g>
		<g transform="matrix(1 0 0 1 49.28 115.89)"  >
<path style="stroke: none; stroke-width: 1; stroke-dasharray: none; stroke-linecap: butt; stroke-dashoffset: 0; stroke-linejoin: miter; stroke-miterlimit: 10; fill: rgb(61,57,53); fill-rule: nonzero; opacity: 1;" vector-effect="non-scaling-stroke"  transform=" translate(-324.28, -350.89)" d="M 327.71457 350.86492 C 327.71457 351.42548 327.63394 351.95148 327.47269 352.44293 C 327.31143 352.93438 327.06763 353.3644 326.74128 353.73298 C 326.41493 354.10157 326.00987000000003 354.39144 325.52610000000004 354.60260999999997 C 325.04233000000005 354.81377999999995 324.47793 354.91936 323.83291 354.91936 L 320.84966000000003 354.91936 L 320.84966000000003 346.85652999999996 L 323.83291 346.85652999999996 C 324.50097000000005 346.85652999999996 325.07881000000003 346.96403 325.56642000000005 347.17904 C 326.05403000000007 347.39405 326.4571700000001 347.68393 326.7758400000001 348.04866999999996 C 327.09451000000007 348.41342 327.3306400000001 348.83768 327.48422000000005 349.32144999999997 C 327.6378 349.80521999999996 327.71459000000004 350.31971 327.71459000000004 350.86490999999995 z M 326.44755 350.87644 C 326.44755 350.00105 326.2095 349.31955 325.73341 348.83194 C 325.25732 348.34432999999996 324.60845 348.10053 323.78681 348.10053 L 322.09362 348.10053 L 322.09362 353.67539999999997 L 323.78681 353.67539999999997 C 324.23219 353.67539999999997 324.61997 353.60821 324.95016 353.47382999999996 C 325.28035 353.33944999999994 325.55679 353.15131999999994 325.77948 352.90943 C 326.00217 352.66755 326.16918 352.37383 326.28053 352.02828 C 326.39187 351.68273 326.44755 351.29879 326.44755 350.87645 z" stroke-linecap="round" />
</g>
		<g transform="matrix(1 0 0 1 59.1 115.89)"  >
<path style="stroke: none; stroke-width: 1; stroke-dasharray: none; stroke-linecap: butt; stroke-dashoffset: 0; stroke-linejoin: miter; stroke-miterlimit: 10; fill: rgb(61,57,53); fill-rule: nonzero; opacity: 1;" vector-effect="non-scaling-stroke"  transform=" translate(-334.11, -350.89)" d="M 334.09956 349.75916 L 336.14982 346.85654 L 337.63568 346.85654 L 334.73305999999997 351.14136 L 334.72153999999995 354.91937 L 333.4775599999999 354.91937 L 333.4775599999999 351.14136 L 330.5749399999999 346.85654 L 332.0607999999999 346.85654 z" stroke-linecap="round" />
</g>
		<g transform="matrix(1 0 0 1 68.78 115.89)"  >
<path style="stroke: none; stroke-width: 1; stroke-dasharray: none; stroke-linecap: butt; stroke-dashoffset: 0; stroke-linejoin: miter; stroke-miterlimit: 10; fill: rgb(61,57,53); fill-rule: nonzero; opacity: 1;" vector-effect="non-scaling-stroke"  transform=" translate(-343.78, -350.89)" d="M 346.0479 354.91937 L 341.71701 349.17172 L 341.71701 354.91937 L 340.49607000000003 354.91937 L 340.49607000000003 346.85654 L 341.47513000000004 346.85654 L 345.84058000000005 352.59267 L 345.84058000000005 346.85654 L 347.06152000000003 346.85654 L 347.06152000000003 354.91937 z" stroke-linecap="round" />
</g>
		<g transform="matrix(1 0 0 1 78.39 115.89)"  >
<path style="stroke: none; stroke-width: 1; stroke-dasharray: none; stroke-linecap: butt; stroke-dashoffset: 0; stroke-linejoin: miter; stroke-miterlimit: 10; fill: rgb(61,57,53); fill-rule: nonzero; opacity: 1;" vector-effect="non-scaling-stroke"  transform=" translate(-353.39, -350.89)" d="M 354.65593 352.60419 L 352.12190000000004 352.60419 L 351.30410000000006 354.91937 L 349.92190000000005 354.91937 L 352.80148 346.85654 L 353.97635 346.85654 L 356.85593 354.91937 L 355.47373 354.91937 z M 352.5596 351.37173 L 354.20671999999996 351.37173 C 354.12992999999994 351.14904 354.05889999999994 350.94939 353.99362999999994 350.77278 C 353.92835999999994 350.59617000000003 353.8650099999999 350.42147 353.80357999999995 350.2487 C 353.74215 350.07592999999997 353.67879999999997 349.89739 353.61352999999997 349.7131 C 353.54825999999997 349.52881 353.47339 349.3138 353.38892 349.06807 z" stroke-linecap="round" />
</g>
		<g transform="matrix(1 0 0 1 88.33 115.89)"  >
<path style="stroke: none; stroke-width: 1; stroke-dasharray: none; stroke-linecap: butt; stroke-dashoffset: 0; stroke-linejoin: miter; stroke-miterlimit: 10; fill: rgb(61,57,53); fill-rule: nonzero; opacity: 1;" vector-effect="non-scaling-stroke"  transform=" translate(-363.33, -350.89)" d="M 365.70585 354.91937 L 365.70585 349.43665000000004 L 363.33307 353.30681000000004 L 360.92574 349.50576000000007 L 360.92574 354.9193700000001 L 359.71632 354.9193700000001 L 359.71632 346.85654000000005 L 360.67234 346.85654000000005 L 363.33307 351.09528000000006 L 365.9938 346.85654000000005 L 366.9383 346.85654000000005 L 366.9383 354.9193700000001 z" stroke-linecap="round" />
</g>
		<g transform="matrix(1 0 0 1 98.57 115.86)"  >
<path style="stroke: none; stroke-width: 1; stroke-dasharray: none; stroke-linecap: butt; stroke-dashoffset: 0; stroke-linejoin: miter; stroke-miterlimit: 10; fill: rgb(61,57,53); fill-rule: nonzero; opacity: 1;" vector-effect="non-scaling-stroke"  transform=" translate(-373.57, -350.86)" d="M 376.0877 350.8534 C 376.0877 350.47713000000005 376.03587 350.11623000000003 375.93219999999997 349.77068 C 375.82854 349.42513 375.67112 349.11989000000005 375.45995 348.85497000000004 C 375.24878 348.59005 374.98578 348.3808 374.67094 348.22722000000005 C 374.35611 348.07364000000007 373.98751999999996 347.99685000000005 373.56518 347.99685000000005 C 373.15052 347.99685000000005 372.78577 348.07364000000007 372.47094 348.22722000000005 C 372.15611 348.3808 371.89502 348.58813000000004 371.68769 348.84921 C 371.48035999999996 349.11029 371.32293999999996 349.41361 371.21544 349.75916 C 371.10794 350.10471 371.05418 350.46946 371.05418 350.8534 C 371.05418 351.23734 371.10792999999995 351.60209000000003 371.21544 351.94764000000004 C 371.32294 352.29319000000004 371.48036 352.59843 371.68769 352.86335 C 371.89502 353.12827000000004 372.1561 353.33944 372.47094 353.49686 C 372.78576999999996 353.65428 373.15052 353.73299000000003 373.56518 353.73299000000003 C 373.98752 353.73299000000003 374.35611 353.6562 374.67094 353.50262000000004 C 374.98576999999995 353.34904000000006 375.24877999999995 353.13979000000006 375.45995 352.87487000000004 C 375.67112 352.60995 375.82854 352.30471000000006 375.93219999999997 351.95916000000005 C 376.03585999999996 351.61361000000005 376.0877 351.24502000000007 376.0877 350.8534000000001 z M 377.3432 350.84188 C 377.3432 351.3794 377.26449 351.89773 377.10707 352.39685000000003 C 376.94965 352.89598 376.71161 353.33559 376.39293000000004 353.7157 C 376.07426000000004 354.09580000000005 375.67879000000005 354.40104 375.20654 354.63141 C 374.73429000000004 354.86178 374.18717000000004 354.97696 373.56518 354.97696 C 372.94319 354.97696 372.39799 354.86178 371.92958 354.63141 C 371.46117 354.40104 371.06763 354.09581000000003 370.74895 353.7157 C 370.43028 353.3356 370.19223 352.89598 370.03481 352.39685000000003 C 369.87739 351.89772000000005 369.79868 351.37940000000003 369.79868 350.84188 C 369.79868 350.31204 369.87739 349.79947 370.03481 349.30418000000003 C 370.19223 348.80889 370.43027 348.37312000000003 370.74895 347.99685000000005 C 371.06762 347.6205800000001 371.46117 347.31919000000005 371.92958 347.09266 C 372.39799 346.86613 372.94318999999996 346.75287000000003 373.56518 346.75287000000003 C 374.18717 346.75287000000003 374.73429 346.86613000000006 375.20654 347.09266 C 375.67879 347.31919000000005 376.07425 347.62058 376.39293000000004 347.99685000000005 C 376.71160000000003 348.37312000000003 376.94965 348.8088900000001 377.10707 349.30418000000003 C 377.26449 349.79947000000004 377.3432 350.31203000000005 377.3432 350.84188 z" stroke-linecap="round" />
</g>
		<g transform="matrix(1 0 0 1 105.89 115.9)"  >
<path style="stroke: none; stroke-width: 1; stroke-dasharray: none; stroke-linecap: butt; stroke-dashoffset: 0; stroke-linejoin: miter; stroke-miterlimit: 10; fill: rgb(61,57,53); fill-rule: nonzero; opacity: 1;" vector-effect="non-scaling-stroke"  transform=" translate(-380.89, -350.89)" d="M 380.20358 354.25131 C 380.20358 354.04398 380.26693 353.87504 380.39363 353.7445 C 380.52033 353.61396 380.68350999999996 353.54869 380.88316 353.54869 C 381.08281 353.54869 381.24791 353.61396 381.37845 353.7445 C 381.50899 353.87504 381.57426 354.04398000000003 381.57426 354.25131 C 381.57426 354.45096 381.50899 354.61222 381.37845 354.73508 C 381.24791 354.85794 381.08281 354.91936999999996 380.88316 354.91936999999996 C 380.68350999999996 354.91936999999996 380.52033 354.85794 380.39363 354.73508 C 380.26692999999995 354.61222 380.20358 354.45096 380.20358 354.25131 z M 381.51667 352.66178 L 380.24965 352.66178 L 380.24965 346.86806 L 381.51667 346.86806 z" stroke-linecap="round" />
</g>
		<g transform="matrix(1 0 0 1 -91.25 81.71)"  >
<path style="stroke: none; stroke-width: 1; stroke-dasharray: none; stroke-linecap: butt; stroke-dashoffset: 0; stroke-linejoin: miter; stroke-miterlimit: 10; fill: rgb(61,57,53); fill-rule: nonzero; opacity: 1;" vector-effect="non-scaling-stroke"  transform=" translate(-183.75, -316.71)" d="M 190.86124 303.98715 C 189.73013 303.98715 188.74786 304.07644999999997 187.76558 304.31458 C 186.84283 304.55271 185.89032 304.9099 185.14617 305.35639 C 184.40202000000002 305.80287999999996 183.7174 306.36843 183.09232 307.02329 C 182.91372 306.51727 182.64583 306.07077999999996 182.22911 305.65405 C 181.54449 304.96943 180.74080999999998 304.64200999999997 179.75852999999998 304.64200999999997 C 178.80602 304.64200999999997 178.00233999999998 304.96943999999996 177.31771999999998 305.65405 C 176.63309999999998 306.33867 176.30567999999997 307.14234999999996 176.30567999999997 308.09486 L 176.30567999999997 328.84175 C 176.30567999999997 329.28824 176.21637999999996 329.70495999999997 176.06754999999995 330.06216 C 175.91871999999995 330.38959 175.71035999999995 330.71701 175.38292999999996 331.04444 C 175.08526999999995 331.3421 174.75783999999996 331.58023000000003 174.40064999999996 331.72906 C 174.04345999999995 331.87789 173.62672999999995 331.96719 173.15047999999996 331.96719 C 172.70398999999995 331.96719 172.28726999999995 331.87789000000004 171.93006999999997 331.72906 C 171.60263999999998 331.58023000000003 171.27521999999996 331.37187 170.94778999999997 331.04444 C 170.65012999999996 330.74678 170.41199999999998 330.41935 170.26316999999997 330.06216 C 170.11433999999997 329.70497 170.02503999999996 329.28824000000003 170.02503999999996 328.84175 L 169.99526999999995 308.03533 C 169.99526999999995 307.08281999999997 169.66783999999996 306.27914 169.04275999999996 305.62429 C 168.38790999999995 304.90990999999997 167.55445999999995 304.58248 166.57217999999995 304.58248 C 165.58989999999994 304.58248 164.78621999999996 304.90990999999997 164.10159999999993 305.59452 C 163.41697999999994 306.27914 163.08955999999992 307.08281999999997 163.08955999999992 308.03533 L 163.08955999999992 328.84175 C 163.08955999999992 330.24075 163.35744999999991 331.52069 163.89323999999993 332.77085999999997 C 164.42902999999993 334.02103 165.14340999999993 335.06284 166.06615999999994 335.98558999999995 C 166.98890999999995 336.90833999999995 168.03070999999994 337.62271999999996 169.28088999999994 338.1585099999999 C 170.50129999999993 338.69429999999994 171.84075999999993 338.9621899999999 173.23976999999994 338.9621899999999 C 174.63876999999994 338.9621899999999 175.97823999999994 338.6942999999999 177.19864999999993 338.1585099999999 C 178.44881999999993 337.6227199999999 179.49062999999992 336.9083399999999 180.41337999999993 335.98558999999995 C 181.33612999999994 335.06283999999994 182.05050999999995 334.02103999999997 182.58629999999994 332.77085999999997 C 183.12208999999993 331.55044999999996 183.38997999999992 330.21099 183.38997999999992 328.81197999999995 L 183.41974999999994 318.24505999999997 C 183.41974999999994 317.23301999999995 183.62810999999994 316.25073999999995 184.01506999999992 315.35776 C 184.4020299999999 314.46477999999996 184.9675799999999 313.63133 185.65219999999994 312.94671999999997 C 186.33681999999993 312.2621 187.17026999999993 311.69654999999995 188.06323999999995 311.30958999999996 C 188.95621999999995 310.92262999999997 189.96825999999996 310.71426999999994 191.01006999999996 310.71426999999994 C 191.99234999999996 310.71426999999994 192.91508999999996 310.92262999999997 193.80806999999996 311.33935999999994 C 194.73081999999997 311.7858499999999 195.50472999999997 312.32163999999995 196.12981999999997 312.97648999999996 C 196.75490999999997 313.66110999999995 197.29068999999996 314.46478999999994 197.70741999999996 315.41729999999995 C 198.09437999999994 316.31028 198.27296999999996 317.29256 198.27296999999996 318.30459999999994 L 198.27296999999996 334.7354199999999 C 198.27296999999996 335.68792999999994 198.60039999999995 336.4916099999999 199.28500999999997 337.1762299999999 C 199.96962999999997 337.8608499999999 200.77330999999998 338.18826999999993 201.75558999999998 338.18826999999993 C 202.73787 338.18826999999993 203.54154999999997 337.86083999999994 204.22617 337.1762299999999 C 204.91079 336.4916099999999 205.23821 335.68792999999994 205.23821 334.7354199999999 L 205.23821 318.30459999999994 C 205.23821 316.34004999999996 204.88102 314.52431999999993 204.13687000000002 312.7681299999999 C 203.39272000000003 311.0119399999999 202.41044000000002 309.52363999999994 201.13051000000002 308.24369999999993 C 199.85057 306.9637599999999 198.39204 305.9517199999999 196.66561000000002 305.17779999999993 C 194.96895 304.43364999999994 193.12346000000002 303.98715999999996 191.15890000000002 303.9573899999999 z M 168.09026 302.43932 C 168.56652 302.23096 169.04277 301.96306 169.42973 301.51657 C 169.78692 301.09985 170.08458000000002 300.68312 170.26318 300.20687 C 170.44178 299.73060999999996 170.56084 299.22459 170.56084 298.62926999999996 C 170.56084 297.43863 170.17388000000003 296.45635 169.3702 295.65266999999994 C 168.56652000000003 294.84898999999996 167.58424000000002 294.46202999999997 166.42337 294.46202999999997 C 165.23273 294.46202999999997 164.25045 294.84898999999996 163.44677000000001 295.65266999999994 C 162.64309000000003 296.45634999999993 162.25613 297.43862999999993 162.25613 298.62926999999996 C 162.25613 299.22459 162.37519 299.76037999999994 162.61332000000002 300.2664 C 162.82168000000001 300.68312 163.05981000000003 301.09985 163.44677000000001 301.51657 C 163.83373 301.96306 164.30998000000002 302.29049 164.81601 302.49885 C 165.29227 302.67745 165.82805000000002 302.79651 166.45314000000002 302.79651 L 166.54244000000003 302.76674 C 167.10799000000003 302.76674 167.61402000000004 302.64768000000004 168.09027000000003 302.43931000000003 z" stroke-linecap="round" />
</g>
		<g transform="matrix(1 0 0 1 -55.96 86.37)"  >
<path style="stroke: none; stroke-width: 1; stroke-dasharray: none; stroke-linecap: butt; stroke-dashoffset: 0; stroke-linejoin: miter; stroke-miterlimit: 10; fill: rgb(61,57,53); fill-rule: nonzero; opacity: 1;" vector-effect="non-scaling-stroke"  transform=" translate(-219.04, -321.37)" d="M 227.4734 321.57884 C 225.77674 320.12031 224.31821 319.1678 223.06803 318.63201000000004 C 221.84762 318.12599000000006 220.56769 317.85809000000006 219.22822 317.82833000000005 C 218.36500999999998 317.82833000000005 217.62086 317.64973000000003 216.96600999999998 317.2627800000001 C 216.34091999999998 316.9055900000001 215.86467 316.36980000000005 215.56700999999998 315.7149500000001 L 215.59678 315.7447200000001 C 215.35864999999998 315.0898700000001 215.23959 314.4647800000001 215.32889 313.86946000000006 C 215.41819 313.21461000000005 215.62655 312.6788200000001 215.95398 312.23233000000005 C 216.31117 311.75607 216.75766 311.39888 217.29345 311.10122000000007 C 217.82924 310.83333000000005 218.42456 310.68450000000007 219.04964 310.68450000000007 C 220.12122000000002 310.68450000000007 221.13326 310.83333000000005 222.11554 311.10122000000007 C 223.06805 311.3691100000001 223.96103000000002 311.78584000000006 224.85401000000002 312.3216300000001 C 225.53863 312.6788200000001 226.28278 312.8574200000001 227.08646000000002 312.76812000000007 C 227.97944 312.6788200000001 228.69382000000002 312.3216300000001 229.22961 311.72631000000007 C 229.55704 311.36912000000007 229.8547 310.9523900000001 230.03329000000002 310.41661000000005 C 230.21189 309.91059000000007 230.24165000000002 309.40457000000004 230.21189 308.92831000000007 C 230.18212 308.39252000000005 230.00353 307.91627000000005 229.73563000000001 307.4995400000001 C 229.46774000000002 307.0530500000001 229.14031000000003 306.6958600000001 228.63429000000002 306.3982000000001 C 227.20552000000004 305.50522000000007 225.68746000000002 304.8503700000001 224.10986000000003 304.3741100000001 C 222.53226000000004 303.89785000000006 220.83560000000003 303.6894900000001 218.99011000000002 303.6894900000001 C 217.50181 303.6894900000001 216.10281 303.9573800000001 214.76334000000003 304.5229400000001 C 213.48340000000002 305.0884900000001 212.3523 305.83264000000014 211.34025000000003 306.7851500000001 C 210.32821 307.7376600000001 209.55429000000004 308.8687700000001 208.98874000000004 310.1189400000001 C 208.42319000000003 311.39888000000013 208.12553000000003 312.73835000000014 208.12553000000003 314.19688000000014 L 208.12553000000003 314.46477000000016 C 208.18506000000002 315.9828400000002 208.54225000000002 317.41160000000013 209.16734000000002 318.72131000000013 C 209.79243000000002 320.06078000000014 210.68541000000002 321.1918900000001 211.84628000000004 322.11463000000015 L 211.81651000000002 322.11463000000015 C 212.70949000000002 322.8885500000001 213.78106000000002 323.54340000000013 215.00147 324.04942000000017 C 216.22188 324.55544000000015 217.47205000000002 324.82334000000014 218.78175000000002 324.85310000000015 C 219.64496000000003 324.88287000000014 220.38911000000002 325.0614600000002 221.07373 325.44842000000017 C 221.69882 325.8056100000002 222.14531000000002 326.31163000000015 222.44297 327.0260200000002 L 222.4132 326.9962500000002 C 222.65133 327.6511000000002 222.77039 328.2761900000002 222.68108999999998 328.8715100000002 C 222.59178999999997 329.52636000000024 222.38342999999998 330.0621500000002 222.05599999999998 330.50864000000024 C 221.69880999999998 330.98490000000027 221.25232 331.40162000000026 220.71652999999998 331.66951000000023 C 220.18074 331.93740000000025 219.58541999999997 332.0862300000002 218.96033999999997 332.0862300000002 C 217.91852999999998 332.0862300000002 216.90648999999996 331.93740000000025 215.92420999999996 331.66951000000023 C 214.94192999999996 331.4016200000002 214.04894999999996 331.0146600000002 213.21550999999997 330.50864000000024 C 212.50112999999996 330.09192000000024 211.75697999999997 329.9133200000002 210.95329999999996 330.00262000000026 C 210.14961999999997 330.09192000000024 209.46499999999995 330.41934000000026 208.89944999999994 330.98490000000027 C 208.54225999999994 331.34209000000027 208.24459999999993 331.78858000000025 208.06599999999995 332.2648400000003 C 207.88739999999996 332.71133000000026 207.82786999999993 333.2173500000003 207.85763999999995 333.75314000000026 C 207.88740999999996 334.25916000000024 208.03623999999994 334.73542000000026 208.27435999999994 335.18191000000024 C 208.54224999999994 335.65817000000027 208.92920999999996 336.07489000000027 209.40546999999995 336.3725500000002 C 210.83423999999997 337.2357600000002 212.35229999999996 337.89062000000024 213.95966999999996 338.36687000000023 C 215.53726999999995 338.84313000000026 217.20415999999997 339.05149000000023 219.01988999999995 339.05149000000023 C 220.50818999999996 339.05149000000023 221.90718999999996 338.7836000000002 223.24665999999993 338.2180400000002 C 224.52659999999995 337.6524900000002 225.65769999999992 336.9083400000002 226.66974999999994 335.9558300000002 C 227.68178999999995 334.9735500000002 228.45570999999993 333.8722100000002 228.99149999999995 332.5922700000002 C 229.55704999999995 331.2825700000002 229.85470999999995 329.9431000000002 229.85470999999995 328.4845600000002 L 229.85470999999995 328.2762000000002 C 229.82493999999994 326.7283700000002 229.49751999999995 325.29960000000017 228.87242999999995 323.9899000000002 C 228.27710999999996 322.7397300000002 227.44365999999997 321.6383900000002 226.37208999999996 320.7454100000002 z" stroke-linecap="round" />
</g>
		<g transform="matrix(1 0 0 1 -27.42 86.74)"  >
<path style="stroke: none; stroke-width: 1; stroke-dasharray: none; stroke-linecap: butt; stroke-dashoffset: 0; stroke-linejoin: miter; stroke-miterlimit: 10; fill: rgb(61,57,53); fill-rule: nonzero; opacity: 1;" vector-effect="non-scaling-stroke"  transform=" translate(-247.58, -321.74)" d="M 253.19121 337.38458 C 253.90559000000002 336.90832 254.56045 336.37254 255.15576000000001 335.77722000000006 C 255.33436 336.3130100000001 255.60225000000003 336.78926000000007 256.04874 337.20599000000004 C 256.73336 337.89061000000004 257.53704 338.21803000000006 258.51932 338.21803000000006 C 259.5016 338.21803000000006 260.30528 337.89060000000006 260.9899 337.20599000000004 C 261.67452 336.52137000000005 262.00194 335.71769000000006 262.00194 334.73541000000006 L 262.00194 307.9757900000001 C 262.00194 306.9935100000001 261.67451 306.1898300000001 260.9899 305.5052100000001 C 260.30528 304.8205900000001 259.5016 304.4931700000001 258.51932 304.4931700000001 C 257.53704 304.4931700000001 256.73336 304.82060000000007 256.04874 305.5052100000001 C 255.36412 306.1898300000001 255.0367 306.9935100000001 255.0367 307.9757900000001 L 255.0367 324.5256800000001 C 255.0367 325.5377200000001 254.82834 326.5200000000001 254.44138 327.41298000000006 C 254.05442000000002 328.3059600000001 253.48887000000002 329.10964000000007 252.80425 329.79426000000007 C 252.11963 330.47888000000006 251.28618 331.0146700000001 250.39321 331.4016200000001 C 249.50023000000002 331.7885800000001 248.48819 331.9969400000001 247.44638 331.9969400000001 C 246.43434 331.9969400000001 245.45206000000002 331.8183400000001 244.58885 331.43139000000014 C 243.69587 331.01467000000014 242.89219 330.5086400000001 242.2671 329.8537900000001 C 241.61225 329.1691700000001 241.07646 328.3952600000001 240.6895 327.4725100000001 C 240.30254000000002 326.60930000000013 240.12395 325.62702000000013 240.12395 324.6149800000001 L 240.12395 308.0650900000001 C 240.12395 307.0828100000001 239.79652000000002 306.2791300000001 239.11191 305.5945100000001 C 238.42729 304.90989000000013 237.62360999999999 304.5824700000001 236.64132999999998 304.5824700000001 C 235.65904999999998 304.5824700000001 234.85537 304.9099000000001 234.17074999999997 305.5945100000001 C 233.48612999999997 306.2791300000001 233.15870999999996 307.0828100000001 233.15870999999996 308.0650900000001 L 233.15870999999996 324.6149800000001 C 233.15870999999996 326.5795300000001 233.51589999999996 328.4250300000001 234.26004999999995 330.1812200000001 C 235.00419999999994 331.9374100000001 235.98647999999994 333.4257100000001 237.26640999999995 334.7056500000001 C 238.54634999999996 335.9855900000001 240.03464999999994 336.99763000000013 241.79083999999995 337.7715500000001 C 243.51726999999994 338.5454700000001 245.36275999999995 338.9621900000001 247.29754999999994 338.9919600000001 L 247.38684999999995 338.90266000000014 L 247.50590999999994 338.90266000000014 C 249.70858999999993 338.9324300000001 251.61361999999994 338.4264000000001 253.19120999999996 337.3845900000001 z" stroke-linecap="round" />
</g>
		<g transform="matrix(1 0 0 1 8.12 75.86)"  >
<path style="stroke: none; stroke-width: 1; stroke-dasharray: none; stroke-linecap: butt; stroke-dashoffset: 0; stroke-linejoin: miter; stroke-miterlimit: 10; fill: rgb(61,57,53); fill-rule: nonzero; opacity: 1;" vector-effect="non-scaling-stroke"  transform=" translate(-283.12, -310.86)" d="M 299.29872 304.61223 L 290.30939 304.61223 L 290.30939 295.26571 C 290.30939 293.59881 289.98196 292.08075 289.35688 290.62222 C 288.73179 289.16369000000003 287.89835 287.91352 286.82677 286.84194 C 285.75519 285.77036000000004 284.50502 284.93692000000004 283.04649 284.31183000000004 C 281.58796 283.68674000000004 280.06989 283.38908000000004 278.43276000000003 283.38908000000004 C 276.76586000000003 283.38908000000004 275.21803000000006 283.71651 273.7595 284.34159000000005 C 272.30097 284.96668000000005 271.0508 285.80012000000005 269.97922 286.87170000000003 C 268.90764 287.94328 268.0742 289.19345000000004 267.44911 290.65198000000004 C 266.82402 292.11051000000003 266.4966 293.65834 266.4966 295.32524000000006 L 266.4966 334.82470000000006 C 266.4966 335.80698000000007 266.82403 336.61066000000005 267.50864 337.29528000000005 C 268.19326 337.97990000000004 268.99694 338.30732000000006 269.97922 338.30732000000006 C 270.9615 338.30732000000006 271.76518 337.97989000000007 272.4498 337.29528000000005 C 273.13442 336.61066000000005 273.46184 335.80698000000007 273.46184 334.82470000000006 L 273.46184 295.32524000000006 C 273.46184 294.64062000000007 273.5809 294.01554000000004 273.8488 293.39045000000004 C 274.11669 292.79513000000003 274.47389 292.25934000000007 274.92037999999997 291.81285 C 275.39664 291.33659 275.90265999999997 290.9794 276.46820999999994 290.77104 C 277.06352999999996 290.53291 277.71837999999997 290.41385 278.4327599999999 290.41385 C 279.1173799999999 290.41385 279.7722299999999 290.53291 280.3377799999999 290.77104 C 280.8735699999999 290.97940000000006 281.3795899999999 291.33659 281.8558499999999 291.81285 C 282.3023399999999 292.25934 282.6595299999999 292.79513000000003 282.9274299999999 293.42021 C 283.1953199999999 294.0453 283.3143899999999 294.67038 283.3143899999999 295.355 L 283.3143899999999 304.70152 L 279.4745799999999 304.70152 C 278.52206999999987 304.70152 277.7183899999999 305.02895 277.0337699999999 305.71356000000003 C 276.3491499999999 306.39818 276.0217299999999 307.20186 276.0217299999999 308.18414 C 276.0217299999999 309.16642 276.34915999999987 309.9701 277.0337699999999 310.65472 C 277.7183899999999 311.33934 278.52206999999987 311.66676 279.4745799999999 311.66676 L 283.3143899999999 311.66676 L 283.3143899999999 329.70495 C 283.3143899999999 330.56816 283.4334499999999 331.49091 283.7013499999999 332.47319 C 283.9692399999999 333.48523 284.44549999999987 334.43773999999996 285.1003499999999 335.30096 C 285.7551999999999 336.13441 286.58864999999986 336.84878999999995 287.63045999999986 337.44410999999997 C 288.70203999999984 338.03943 289.9819699999999 338.33709 291.44050999999985 338.33709 C 292.66091999999986 338.33709 293.76225999999986 338.12872999999996 294.80406999999985 337.68224 C 295.84587999999985 337.23575 296.7388599999999 336.5809 297.48300999999987 335.71769 C 297.7508999999999 335.39026 297.9592699999999 335.03307 298.1378599999999 334.61635 C 298.3164599999999 334.14009 298.3759899999999 333.66384 298.3462199999999 333.24711 C 298.2866899999999 332.86015000000003 298.1676199999999 332.44343000000003 298.0187899999999 332.05647000000005 C 297.8401899999999 331.58021 297.5425299999999 331.19326000000007 297.15557999999993 330.8658300000001 C 296.41142999999994 330.21098000000006 295.5482199999999 329.91332000000006 294.62546999999995 330.0026200000001 C 293.70271999999994 330.0919200000001 292.89903999999996 330.50864000000007 292.27395999999993 331.2230300000001 C 292.0655999999999 331.43139000000014 291.76793999999995 331.5504600000001 291.3512099999999 331.5504600000001 C 291.0833199999999 331.5504600000001 290.8749499999999 331.5206900000001 290.7558899999999 331.4314000000001 C 290.5475299999999 331.28257000000013 290.3986999999999 331.1635100000001 290.3093999999999 331.0146800000001 C 290.22009999999995 330.86585000000014 290.1307999999999 330.6872500000001 290.1010399999999 330.50866000000013 C 290.0712699999999 330.2705300000001 290.0415099999999 330.06217000000015 290.0415099999999 329.8538100000001 L 290.0415099999999 311.81562000000014 L 296.2923699999999 311.81562000000014 C 297.2448799999999 311.81562000000014 298.0485599999999 311.48819000000015 298.7331799999999 310.8035800000001 C 299.4177999999999 310.11896000000013 299.7452199999999 309.31528000000014 299.7452199999999 308.33300000000014 C 299.7452199999999 307.35072000000014 299.4177899999999 306.54704000000015 298.7331799999999 305.86242000000016 C 298.5843499999999 305.74336000000017 298.4355199999999 305.59453000000013 298.2866899999999 305.50523000000015 z" stroke-linecap="round" />
</g>
		<g transform="matrix(1 0 0 1 50.99 86.04)"  >
<path style="stroke: none; stroke-width: 1; stroke-dasharray: none; stroke-linecap: butt; stroke-dashoffset: 0; stroke-linejoin: miter; stroke-miterlimit: 10; fill: rgb(61,57,53); fill-rule: nonzero; opacity: 1;" vector-effect="non-scaling-stroke"  transform=" translate(-325.98, -321.04)" d="M 349.93065 317.91763 C 349.84135000000003 315.77448 349.48416000000003 313.92899 348.82931 312.26209 C 348.20422 310.62496 347.28148000000004 309.19619 346.15037 307.91626 C 344.9895 306.60656 343.5905 305.59451 341.95337 304.88013 C 340.28647 304.13598 338.41122 303.77879 336.29783000000003 303.77879 C 335.16672000000005 303.77879 334.06538 303.92762 332.99381000000005 304.22528 C 331.92223000000007 304.52294 330.91019000000006 304.93966 329.95768000000004 305.50522 C 329.0647 306.01124 328.20149000000004 306.66609 327.36804000000006 307.46977 C 326.9215500000001 307.88649 326.53459000000004 308.33297999999996 326.14763000000005 308.80924 C 325.5820800000001 307.94603 325.73091000000005 308.27344999999997 325.10582000000005 307.55906999999996 C 324.36167000000006 306.72561999999994 323.58775 306.07077 322.75431000000003 305.53497999999996 C 321.86133 304.96943 320.84929000000005 304.55269999999996 319.71818 304.25503999999995 C 318.61684 303.95737999999994 317.3369 303.80854999999997 315.90813 303.80854999999997 C 314.92585 303.80854999999997 313.97334 303.98715 313.08036000000004 304.28481 C 312.18738 304.61224 311.38370000000003 304.99919 310.66932 305.47544999999997 C 310.04423 305.92193999999995 309.44891 306.42796 308.88336000000004 307.02327999999994 C 308.70476 306.4874899999999 308.43687000000006 306.01123999999993 308.02015000000006 305.59450999999996 C 307.33553000000006 304.90988999999996 306.5318500000001 304.58246999999994 305.5495700000001 304.58246999999994 C 304.56729000000007 304.58246999999994 303.7338500000001 304.90989999999994 303.0492300000001 305.59450999999996 C 302.3646100000001 306.27912999999995 302.03719000000007 307.08280999999994 302.03719000000007 308.06508999999994 L 302.03719000000007 334.76517999999993 C 302.03719000000007 335.74745999999993 302.36462000000006 336.5511399999999 303.0492300000001 337.2357599999999 C 303.7338500000001 337.9203799999999 304.53753000000006 338.2477999999999 305.51981000000006 338.2477999999999 C 306.50209000000007 338.2477999999999 307.30577000000005 337.92036999999993 307.99039000000005 337.2357599999999 C 308.67501000000004 336.5511399999999 309.00243000000006 335.74745999999993 309.00243000000006 334.76517999999993 L 309.00243000000006 318.09622999999993 C 309.03220000000005 317.05441999999994 309.2107900000001 316.1019099999999 309.56798000000003 315.23869999999994 C 309.92517000000004 314.3457199999999 310.43119 313.57179999999994 311.05628 312.91694999999993 C 311.65160000000003 312.29185999999993 312.39575 311.78583999999995 313.25896 311.36911999999995 C 314.09241000000003 310.98215999999996 314.95562 310.80357 315.8486 310.80357 C 316.80111 310.80357 317.60479 310.95239999999995 318.31917999999996 311.25005999999996 C 319.03355999999997 311.54771999999997 319.68841999999995 311.96443999999997 320.28372999999993 312.50023 C 320.8492799999999 313.00624999999997 321.32553999999993 313.63133999999997 321.7124999999999 314.37549 C 322.0994599999999 315.08987 322.36734999999993 315.80426 322.5161799999999 316.54841 L 322.5161799999999 334.79496 C 322.5161799999999 335.77724 322.8436099999999 336.58092 323.5282199999999 337.26554 C 324.2128399999999 337.95016 325.0165199999999 338.27758 325.9987999999999 338.27758 C 326.9810799999999 338.27758 327.7847599999999 337.95015 328.4693799999999 337.26554 C 329.1539999999999 336.58092 329.4814199999999 335.77724 329.4814199999999 334.79496 L 329.4814199999999 316.54841 L 329.4516499999999 316.72701 C 329.6004799999999 315.8638 329.8981399999999 315.08988 330.3148599999999 314.34573 C 330.7315799999999 313.63135 331.2376099999999 313.00626 331.8329299999999 312.47047 C 332.3984799999999 311.96445 333.05333999999993 311.57748999999995 333.82724999999994 311.27983 C 334.6011699999999 310.98217 335.3750799999999 310.83334 336.17875999999995 310.83334 C 337.22056999999995 310.83334 338.14330999999993 311.04170000000005 338.97675999999996 311.42866000000004 C 339.78043999999994 311.81562 340.46505999999994 312.35141000000004 341.03060999999997 313.00626000000005 C 341.62593 313.72064000000006 342.07241999999997 314.49456000000004 342.37008 315.3577700000001 C 342.69750999999997 316.2805200000001 342.84634 317.26279000000005 342.84634 318.3343700000001 L 342.84634 334.82472000000007 C 342.84634 335.8070000000001 343.17377 336.61068000000006 343.85838 337.29530000000005 C 344.543 337.97992000000005 345.34668 338.30734000000007 346.32896 338.30734000000007 C 347.31124 338.30734000000007 348.11492 337.9799100000001 348.79954 337.29530000000005 C 349.48416 336.61068000000006 349.81158 335.8070000000001 349.81158 334.82472000000007 L 349.81158 318.0664700000001 z" stroke-linecap="round" />
</g>
		<g transform="matrix(1 0 0 1 95.28 86.33)"  >
<path style="stroke: none; stroke-width: 1; stroke-dasharray: none; stroke-linecap: butt; stroke-dashoffset: 0; stroke-linejoin: miter; stroke-miterlimit: 10; fill: rgb(61,57,53); fill-rule: nonzero; opacity: 1;" vector-effect="non-scaling-stroke"  transform=" translate(-370.28, -321.33)" d="M 365.82569 304.52293 C 364.42669 304.90988999999996 363.02769 305.50521 361.68822 306.27912 C 360.40828 307.02326999999997 359.21764 307.94602 358.14607 308.98782 C 357.01496000000003 310.08916 356.09222 311.25003 355.34807 312.44067 C 354.60392 313.63131 354.0086 315.03031 353.53235 316.54838 C 353.08586 318.06645000000003 352.84773 319.58451 352.81797 321.10258 C 352.7882 323.54339 353.23469 325.83537 354.15744 328.00829 C 355.08019 330.18120999999996 356.30059 332.0267 357.87819 333.63406 C 359.42602 335.21166 361.30128 336.49159 363.47419 337.41434 C 365.64711 338.33709 367.90932000000004 338.81334 370.35013000000004 338.81334 C 373.08860000000004 338.81334 375.61871 338.24779 377.94046000000003 337.08691 C 380.26221000000004 335.92604 382.22676 334.37820999999997 383.83412000000004 332.41364999999996 L 383.83412000000004 332.44341999999995 C 384.31038000000007 331.87787 384.57827000000003 331.25278 384.60804 330.5681599999999 C 384.63781 329.9430699999999 384.51874000000004 329.3477499999999 384.28061 328.8119699999999 C 384.01272 328.2761799999999 383.59599000000003 327.7999299999999 383.0602 327.4129699999999 C 382.49465000000004 327.0260099999999 381.86956000000004 326.84741999999994 381.12541 326.84741999999994 C 380.76822 326.84741999999994 380.41103 326.8771899999999 380.05383 326.96647999999993 C 379.8157 327.0260099999999 379.54781 327.1153099999999 379.19062 327.2939099999999 C 378.7739 327.47250999999994 378.38694000000004 327.7403999999999 378.08928000000003 328.0975899999999 C 377.107 329.2286999999999 375.9759 330.1216799999999 374.69596 330.74675999999994 C 373.41602 331.37184999999994 371.98726 331.69926999999996 370.40966000000003 331.69926999999996 C 369.09996 331.69926999999996 367.87955000000005 331.49090999999993 366.68891 331.01464999999996 C 365.49827000000005 330.53838999999994 364.45646 329.94307 363.56348 329.13938999999993 C 362.6705 328.36546999999996 361.92635 327.41295999999994 361.30127000000005 326.25208999999995 C 360.88455000000005 325.44840999999997 360.58689000000004 324.73401999999993 360.37852000000004 323.87080999999995 L 383.47692000000006 323.87080999999995 C 384.10201000000006 323.87080999999995 384.6973300000001 323.75174999999996 385.29264000000006 323.45408999999995 C 385.8284300000001 323.18619999999993 386.3046800000001 322.82899999999995 386.69164000000006 322.35274999999996 C 387.07860000000005 321.87648999999993 387.3464900000001 321.40023999999994 387.5250900000001 320.83467999999993 C 387.7334500000001 320.20958999999993 387.7929800000001 319.6142699999999 387.7036900000001 319.01895999999994 C 387.4060300000001 316.87580999999994 386.7809400000001 314.91124999999994 385.7689000000001 313.06575999999995 C 384.7866200000001 311.25003999999996 383.5066900000001 309.67243999999994 381.9588500000001 308.30319999999995 C 380.4705500000001 306.96372999999994 378.7143600000001 305.89215999999993 376.7498000000001 305.08847 C 374.7554800000001 304.28479 372.5230300000001 303.86805999999996 370.05245000000014 303.83829999999995 L 369.93339000000014 303.95735999999994 C 368.50462000000016 303.9871299999999 367.13539000000014 304.16571999999996 365.82568000000015 304.5229099999999 z M 373.59461 311.48817 C 374.60665 311.84536 375.55915999999996 312.32162000000005 376.39261 312.9467 C 377.25581999999997 313.60155000000003 377.99996999999996 314.3457 378.59529 315.17915000000005 C 378.95248 315.6554100000001 379.22038 316.13166000000007 379.48827 316.66745000000003 L 361.12266 316.66745000000003 C 361.39055 316.10190000000006 361.65845 315.71494 362.01564 315.23868000000004 C 362.67049000000003 314.37547000000006 363.47417 313.54202000000004 364.27785 312.97647000000006 C 365.14106 312.35138000000006 366.09357 311.87513000000007 367.13538 311.51794000000007 C 368.17719 311.16075000000006 369.219 310.98215000000005 370.32034 310.98215000000005 L 370.37987 310.95238000000006 C 371.51097999999996 310.95238000000006 372.55278999999996 311.1309800000001 373.59459999999996 311.4881700000001 z" stroke-linecap="round" />
</g>
		<g transform="matrix(1 0 0 1 0 -50.42)"  >
<path style="stroke: none; stroke-width: 1; stroke-dasharray: none; stroke-linecap: butt; stroke-dashoffset: 0; stroke-linejoin: miter; stroke-miterlimit: 10; fill: rgb(61,57,53); fill-rule: nonzero; opacity: 1;" vector-effect="non-scaling-stroke"  transform=" translate(-275, -184.58)" d="M 233.88305 148.1044 C 241.05214999999998 148.1044 244.63671 141.77872 247.58868999999999 141.77872 C 251.3841 141.77872 249.06467999999998 151.26724 253.49265999999997 152.95408999999998 C 258.34234999999995 154.85178999999997 262.77031999999997 157.80378 262.77031999999997 162.23174999999998 C 262.77031999999997 171.08769999999998 245.90183999999996 176.14824999999996 245.90183999999996 182.68478999999996 C 245.90183999999996 186.05847999999997 250.32981999999996 189.64303999999996 250.32981999999996 192.38415999999995 C 250.32981999999996 194.28185999999994 248.01040999999995 194.28185999999994 248.01040999999995 196.39042999999995 C 248.01040999999995 198.28812999999994 249.90810999999994 198.92069999999995 249.90810999999994 200.39669999999995 C 249.90810999999994 201.24011999999996 249.27553999999995 202.08354999999995 247.79954999999993 203.34867999999994 C 243.58242999999993 206.93323999999996 237.46760999999992 209.04178999999993 237.46760999999992 213.68061999999995 C 237.46760999999992 220.00629999999995 248.6429799999999 221.69314999999995 248.6429799999999 226.96454999999995 C 248.6429799999999 230.97081999999995 242.3172999999999 233.92279999999994 242.3172999999999 241.93532999999994 L 242.3172999999999 254.16497999999993 L 303.6764099999999 254.16497999999993 L 303.6764099999999 234.97707999999994 C 303.6764099999999 229.28396999999995 302.83298999999994 221.06057999999996 293.7661799999999 217.89773999999994 C 287.2296399999999 215.57832999999994 284.2776599999999 213.89146999999994 284.2776599999999 212.20462999999995 C 284.2776599999999 211.15034999999995 285.9645099999999 209.88521999999995 288.7056399999999 208.83093999999994 C 295.6638899999999 206.08980999999994 311.6889499999999 203.13782999999995 311.6889499999999 197.86641999999995 C 311.6889499999999 190.69731999999993 281.7473999999999 193.22757999999996 281.7473999999999 180.99793999999994 C 281.7473999999999 178.04595999999995 283.22338999999994 176.14824999999993 285.7536699999999 176.14824999999993 C 287.0187999999999 176.14824999999993 288.4947999999999 176.56995999999992 289.75993999999986 176.56995999999992 C 295.45304999999985 176.56995999999992 296.29647999999986 166.87058999999994 303.88728999999984 166.87058999999994 C 305.99584999999985 166.87058999999994 308.73697999999985 167.71400999999994 312.3215299999998 167.71400999999994 C 318.0146399999998 167.71400999999994 323.2860499999998 165.60544999999993 323.2860499999998 161.81003999999996 C 323.2860499999998 159.49062999999995 321.38834999999983 157.17119999999997 318.22549999999984 157.17119999999997 C 313.79751999999985 157.17119999999997 309.15868999999986 161.17746999999997 303.04386999999986 161.17746999999997 C 295.45304999999985 161.17746999999997 293.9770599999999 155.06263999999996 293.76620999999983 152.11065999999997 C 293.76620999999983 148.73696999999996 295.24219999999985 144.73069999999996 298.40504999999985 141.35699999999997 C 303.4655999999998 136.08559999999997 303.6764499999998 135.24216999999996 303.6764499999998 129.97076999999996 L 303.6764499999998 114.99998999999995 L 242.31733999999983 114.99998999999995 L 242.31733999999983 120.48224999999995 C 242.31733999999983 126.38621999999995 248.85387999999983 127.22963999999995 248.85387999999983 131.23590999999996 C 248.85387999999983 134.18788999999995 244.84760999999983 137.13987999999995 238.31107999999983 137.13987999999995 C 231.14197999999982 137.13987999999995 226.71399999999983 140.51356999999996 226.71399999999983 143.46555999999995 C 226.71399999999983 145.99582999999996 229.66597999999982 148.10439999999994 233.88309999999984 148.10439999999994 z M 270.57199 199.97498 C 270.57199 197.44471 273.73483000000004 196.17956999999998 280.06051 196.17956999999998 C 285.75362 196.17956999999998 296.08557 197.23385 296.08557 199.34240999999997 C 296.08557 201.45096999999998 286.38620000000003 203.77038999999996 278.79538 203.77038999999996 C 273.52398000000005 203.77038999999996 270.572 202.71610999999996 270.572 199.97497999999996 z M 254.33608 135.03132 C 254.33608 133.34447 260.02919 132.71191 265.08974 132.71191 C 270.99371 132.71191 273.52398 133.55533 273.52398 135.66388999999998 C 273.52398 137.98329999999999 270.78285 138.82672999999997 266.56573 138.82672999999997 C 260.66175999999996 138.82672999999997 254.33607999999998 136.92902999999998 254.33607999999998 135.03131999999997 z M 237.67846 184.58249 C 240.8413 184.58249 243.37157 183.31736 243.37157 179.94365000000002 C 243.37157 177.41338000000002 242.10644 176.56996 239.57616 176.56996 C 235.14818 176.56996 229.45506999999998 178.67852000000002 229.45506999999998 180.99794 C 229.45506999999998 183.1065 234.09390999999997 184.5825 237.67844999999997 184.5825 z M 245.48013 212.62634 C 246.53441 212.62634 249.27554 214.31319 255.39036000000002 215.15661 C 261.50519 216.00003 264.03546 215.36747 264.03546 216.84346 C 264.03546 218.53031 261.50519 220.42802 258.34235 220.42802 C 254.33608 220.42802 244.42585000000003 217.05433 244.42585000000003 213.89148 C 244.42585000000003 213.04806 244.84756000000002 212.62635 245.48013000000003 212.62635 z M 297.77242 152.74323 C 297.77242 155.69521 300.09183 157.80378000000002 303.04382 157.80378000000002 C 305.36323 157.80378000000002 308.73693 156.7495 308.73693 155.69522 C 308.73693 154.00837 300.30269 150.42382 298.82669999999996 150.42382 C 298.19413 150.42382 297.77241999999995 151.4781 297.77241999999995 152.74323 z M 238.52188 227.59712 C 238.52188 229.07310999999999 239.99787 230.54909999999998 242.10644000000002 230.54909999999998 C 244.00414 230.54909999999998 245.48013000000003 229.07310999999999 245.48013000000003 227.59712 C 245.48013000000003 225.91027 244.00414000000004 224.64514 242.10644000000002 224.64514 C 239.99788 224.64514 238.52188 225.91027 238.52188 227.59712 z M 242.31729 133.76619 C 244.42585000000003 133.76619 246.32356000000001 132.50106 246.32356000000001 131.23592 C 246.32356000000001 129.75993 244.42586000000003 128.70565 242.31729 128.70565 C 239.99788 128.70565 238.31102 129.75993 238.31102 131.23592 C 238.31102 132.50105 239.99787 133.76619 242.31729 133.76619 z M 295.87472 214.52404 C 297.98328000000004 214.52404 298.61585 213.46976 298.61585 212.20463 C 298.61585 210.72864 297.98328000000004 209.67436 295.87472 209.67436 C 293.76616 209.67436 290.81417000000005 210.72864 290.81417000000005 212.20463 C 290.81417000000005 213.46976 293.76615000000004 214.52404 295.87472 214.52404 z M 284.06678 182.05222 C 284.06678 183.31735 285.54277 184.58249 287.01876 184.58249 C 288.70561 184.58249 289.97074 183.31736 289.97074 182.05222 C 289.97074 180.78709 288.70561 179.52195 287.01876 179.52195 C 285.54276999999996 179.52195 284.06678 180.78708 284.06678 182.05222 z M 244.00414 148.52611 C 244.00414 149.58039 244.63671 150.42380999999997 245.69099 150.42380999999997 C 247.16698 150.42380999999997 248.64297 149.15867999999998 248.64297 147.47182999999998 L 248.64297 146.83926 C 248.64297 145.99584 248.22126 144.73069999999998 246.95612 144.73069999999998 C 245.26927 144.73069999999998 244.00414 146.83926 244.00414 148.52611 z" stroke-linecap="round" />
</g>
</g>
</g>
</svg>